<?xml version="1.0"?>
<svg xmlns="http://www.w3.org/2000/svg" viewBox="0 0 24 24" enable-background="new 0 0 24 24">
    <path style="text-indent:0;text-align:start;line-height:normal;text-transform:none;block-progression:tb;-inkscape-font-specification:Bitstream Vera Sans" d="M 7.5 5 C 7.0070469 5 6.3769896 5.2530603 5.96875 5.78125 L 5.9375 5.75 L 5.875 5.84375 L 1.21875 11.34375 L 0.6875 12 L 1.21875 12.65625 L 5.875 18.15625 L 5.9375 18.25 L 5.96875 18.21875 C 6.3769896 18.74694 7.0070469 19 7.5 19 L 21 19 C 21.522222 19 22.060469 18.814531 22.4375 18.4375 C 22.814531 18.060469 23 17.522222 23 17 L 23 7 C 23 6.4777778 22.814531 5.9395305 22.4375 5.5625 C 22.060469 5.1854695 21.522222 5 21 5 L 7.5 5 z M 7.5 7 L 21 7 L 21 17 L 7.5 17 L 7.46875 16.96875 L 3.3125 12 L 7.46875 7.03125 L 7.5 7 z M 9 11 C 8.4477153 11 8 11.447715 8 12 C 8 12.552285 8.4477153 13 9 13 C 9.5522847 13 10 12.552285 10 12 C 10 11.447715 9.5522847 11 9 11 z M 12 11 C 11.447715 11 11 11.447715 11 12 C 11 12.552285 11.447715 13 12 13 C 12.552285 13 13 12.552285 13 12 C 13 11.447715 12.552285 11 12 11 z M 15 11 C 14.447715 11 14 11.447715 14 12 C 14 12.552285 14.447715 13 15 13 C 15.552285 13 16 12.552285 16 12 C 16 11.447715 15.552285 11 15 11 z M 18 11 C 17.447715 11 17 11.447715 17 12 C 17 12.552285 17.447715 13 18 13 C 18.552285 13 19 12.552285 19 12 C 19 11.447715 18.552285 11 18 11 z" overflow="visible" enable-background="accumulate" font-family="Bitstream Vera Sans"/>
</svg>
